<svg xmlns:xlink="http://www.w3.org/1999/xlink" xmlns="http://www.w3.org/2000/svg" width="405px" height="310px" viewBox="0 0 405 310" style="overflow: hidden; display: block; width: 405px; height: 310px;"><defs/><g style="pointer-events:visiblePainted" transform="translate(19.70053729345237 0)" image-rendering="auto" shape-rendering="auto"><g><path fill="none" stroke="rgb(169,169,169)" d="M 35,230 L 35,250" stroke-opacity="1" stroke-width="1" stroke-linecap="butt" stroke-linejoin="miter" stroke-miterlimit="10"/></g><g><path fill="none" stroke="rgb(169,169,169)" d="M 168.33333333333334,140 L 168.33333333333334,150 L 35,150 L 35,170" stroke-opacity="1" stroke-width="1" stroke-linecap="butt" stroke-linejoin="miter" stroke-miterlimit="10"/></g><g><path fill="none" stroke="rgb(169,169,169)" d="M 185,140 L 185,170" stroke-opacity="1" stroke-width="1" stroke-linecap="butt" stroke-linejoin="miter" stroke-miterlimit="10"/></g><g><path fill="none" stroke="rgb(169,169,169)" d="M 335,230 L 335,250" stroke-opacity="1" stroke-width="1" stroke-linecap="butt" stroke-linejoin="miter" stroke-miterlimit="10"/></g><g><path fill="none" stroke="rgb(169,169,169)" d="M 201.66666666666666,140 L 201.66666666666666,150 L 335,150 L 335,170" stroke-opacity="1" stroke-width="1" stroke-linecap="butt" stroke-linejoin="miter" stroke-miterlimit="10"/></g><g><path fill="none" stroke="rgb(169,169,169)" d="M 185,60 L 185,80" stroke-opacity="1" stroke-width="1" stroke-linecap="butt" stroke-linejoin="miter" stroke-miterlimit="10"/></g><g transform="translate(160 0)"><g transform="scale(2.78)">
            <svg svgBox="0 0 18 18" fill="msportalfx-svg-placeholder" role="presentation" focusable="false"><g><title/><defs><linearGradient id="ygc18_0" x1="9.88" y1="8.59" x2="11.52" y2="10.23" gradientTransform="rotate(-.08 -285.464 -1454.08)" gradientUnits="userSpaceOnUse"><stop offset="0" stop-color="#86d633"/><stop offset=".24" stop-color="#83d232"/><stop offset=".5" stop-color="#7cc52f"/><stop offset=".76" stop-color="#6fb02a"/><stop offset="1" stop-color="#5e9624"/></linearGradient><linearGradient id="ygc18_1" x1="6.18" y1="8.59" x2="7.81" y2="10.23"/><linearGradient id="ygc18_2" x1="2.48" y1="8.59" x2="4.11" y2="10.23"/></defs><title>Icon-networking-61</title><circle cx="12.74" cy="8.99" r="1.16" fill="url(#ygc18_0)"/><circle cx="9.04" cy="9" r="1.16" fill="url(#ygc18_1)"/><circle cx="5.34" cy="9" r="1.16" fill="url(#ygc18_2)"/><path d="m6.182 13.638-.664.665a.3.3 0 0 1-.424 0L.18 9.404a.6.6 0 0 1-.001-.848l.663-.666 5.34 5.324a.3.3 0 0 1 0 .425Z" fill="#50e6ff"/><path d="m5.418 3.708.666.664a.3.3 0 0 1 0 .424L.838 10.057l-.666-.663a.6.6 0 0 1-.001-.849L4.994 3.71a.3.3 0 0 1 .424 0Z" fill="#1490df"/><path d="m17.157 7.88.663.666a.6.6 0 0 1 0 .848l-4.915 4.9a.3.3 0 0 1-.424 0l-.664-.666a.3.3 0 0 1 0-.424l5.34-5.324Z" fill="#50e6ff"/><path d="m17.818 9.387-.665.664-5.247-5.261a.3.3 0 0 1 0-.425l.674-.67a.3.3 0 0 1 .424 0l4.823 4.836a.6.6 0 0 1-.002.849Z" fill="#1490df"/></g></svg>
        </g></g><g transform="translate(160 80)"><g transform="scale(2.78)">
            <svg svgBox="0 0 18 18" fill="msportalfx-svg-placeholder" role="presentation" focusable="false"><g><title/><defs><linearGradient id="ygc18_3" x1="9.033" y1="10.305" x2="9.033" y2="7.695" gradientUnits="userSpaceOnUse"><stop offset="0" stop-color="#5e9624"/><stop offset=".241" stop-color="#6fb02a"/><stop offset=".501" stop-color="#7cc52f"/><stop offset=".756" stop-color="#83d232"/><stop offset="1" stop-color="#86d633"/></linearGradient></defs><path d="M9.031 7.7A1.305 1.305 0 1 0 10.338 9a1.305 1.305 0 0 0-1.307-1.3Z" fill="url(#ygc18_3)"/><path d="m6.34 13.375-.626.629a.284.284 0 0 1-.402 0L.673 9.38a.568.568 0 0 1 0-.804l.626-.629 5.04 5.027a.284.284 0 0 1 .002.402Z" fill="#50e6ff"/><path d="m5.62 3.996.627.626a.284.284 0 0 1 0 .402L1.295 9.99l-.626-.624a.568.568 0 0 1 0-.803L5.22 3.999a.284.284 0 0 1 .401 0Z" fill="#1490df"/><path d="m16.702 7.947.627.629a.568.568 0 0 1-.001.803l-4.639 4.626a.284.284 0 0 1-.402 0l-.627-.63a.284.284 0 0 1 .001-.401l5.041-5.027Z" fill="#50e6ff"/><path d="m17.333 9.364-.629.627-4.953-4.967a.284.284 0 0 1 0-.402l.628-.626a.284.284 0 0 1 .402 0l4.552 4.566a.568.568 0 0 1 0 .803Z" fill="#1490df"/></g></svg>
        </g></g><g transform="translate(10 170)"><g transform="scale(2.78)">
            <svg svgBox="0 0 18 18" fill="msportalfx-svg-placeholder" role="presentation" focusable="false"><g><title/><defs><linearGradient id="ygc18_4" x1="9.01" y1="16.5" x2="9.01" y2="1.5" gradientUnits="userSpaceOnUse"><stop offset="0" stop-color="#5e9641"/><stop offset=".34" stop-color="#6baa42"/><stop offset=".67" stop-color="#73b743"/><stop offset="1" stop-color="#76bb43"/></linearGradient></defs><title>Icon-networking-80</title><path d="M15.89 2.91h1.27a.34.34 0 0 1 .34.34v3.5a.34.34 0 0 1-.34.34h-1.27V2.91Zm0 6.09h1.27a.34.34 0 0 1 .34.34v5.86a.34.34 0 0 1-.34.34h-1.27V9Z" fill="#ffca00"/><rect x="2.13" y="1.5" width="13.76" height="15" rx=".69" fill="url(#ygc18_4)"/><path d="M5.9 12.9h-.71a.2.2 0 0 1-.19-.21V4.34a.19.19 0 0 1 .19-.2h1.93a.19.19 0 0 1 .19.2.2.2 0 0 1-.19.21H5.38v7.93h.52a.2.2 0 0 1 .19.21.21.21 0 0 1-.19.21Z" fill="#b4ec36"/><path d="M6 13.92H4.4a.2.2 0 0 1-.19-.21L4.08 3.38a.2.2 0 0 1 .06-.15.16.16 0 0 1 .13-.06h2.85v.41H4.47l.12 9.92H6Zm6-.92h-1.59a.19.19 0 0 1-.14-.07.18.18 0 0 1-.06-.14V7.9a.19.19 0 0 1 .19-.2h.91V5.45h.38v2.44a.2.2 0 0 1-.18.21h-.91v4.42H12Z" fill="#b4ec36"/><rect x="7.07" y="2.29" width="6.14" height="3.11" rx=".26" fill="#365615"/><rect x="5.86" y="12.69" width="4.9" height="1.09" rx=".26" transform="rotate(90 8.305 13.235)" fill="#365615"/><rect x="3.99" y="12.71" width="4.9" height="1.09" rx=".26" transform="rotate(90 6.44 13.26)" fill="#365615"/><rect x="9.98" y="12.71" width="4.9" height="1.09" rx=".26" transform="rotate(90 12.425 13.255)" fill="#f2f2f2"/><ellipse cx="8.11" cy="8.06" rx="1.04" ry="1.12" fill="#f2f2f2"/><path d="M2.11 12.25H.84a.34.34 0 0 1-.34-.3V6.09a.34.34 0 0 1 .34-.34h1.27v6.5Z" fill="#3b3b3b"/></g></svg>
        </g></g><g transform="translate(10 250)"><g transform="scale(2.78)">
            <svg svgBox="0 0 18 18" fill="msportalfx-svg-placeholder" role="presentation" focusable="false"><g><title/><defs><linearGradient id="ygc18_5" x1="8.88" y1="12.21" x2="8.88" y2=".21" gradientUnits="userSpaceOnUse"><stop offset="0" stop-color="#0078d4"/><stop offset=".82" stop-color="#5ea0ef"/></linearGradient><linearGradient id="ygc18_6" x1="8.88" y1="16.84" x2="8.88" y2="12.21" gradientUnits="userSpaceOnUse"><stop offset=".15" stop-color="#ccc"/><stop offset="1" stop-color="#707070"/></linearGradient></defs><title>Icon-compute-21</title><rect x="-.12" y=".21" width="18" height="12" rx=".6" fill="url(#ygc18_5)"/><path fill="#50e6ff" d="M11.88 4.46v3.49l-3 1.76v-3.5l3-1.75z"/><path fill="#c3f1ff" d="m11.88 4.46-3 1.76-3-1.76 3-1.75 3 1.75z"/><path fill="#9cebff" d="M8.88 6.22v3.49l-3-1.76V4.46l3 1.76z"/><path fill="#c3f1ff" d="m5.88 7.95 3-1.74v3.5l-3-1.76z"/><path fill="#9cebff" d="m11.88 7.95-3-1.74v3.5l3-1.76z"/><path d="M12.49 15.84c-1.78-.28-1.85-1.56-1.85-3.63H7.11c0 2.07-.06 3.35-1.84 3.63a1 1 0 0 0-.89 1h9a1 1 0 0 0-.89-1Z" fill="url(#ygc18_6)"/></g></svg>
        </g></g><g transform="translate(160 170)"><g transform="scale(2.78)">
            <svg svgBox="0 0 18 18" fill="msportalfx-svg-placeholder" role="presentation" focusable="false"><g><title/><defs><linearGradient id="ygc18_7" x1="9.01" y1=".75" x2="9.01" y2="17.25" gradientUnits="userSpaceOnUse"><stop offset="0" stop-color="#5ea0ef"/><stop offset=".18" stop-color="#559cec"/><stop offset=".47" stop-color="#3c91e5"/><stop offset=".84" stop-color="#1380da"/><stop offset="1" stop-color="#0078d4"/></linearGradient></defs><title>Icon-networking-67</title><path d="M16.36 8.4c0 4.84-5.85 8.74-7.12 9.53a.46.46 0 0 1-.48 0c-1.27-.79-7.12-4.69-7.12-9.53V2.58a.46.46 0 0 1 .45-.46C6.64 2 5.59 0 9 0s2.36 2 6.91 2.12a.46.46 0 0 1 .45.46Z" fill="#0078d4"/><path d="M15.75 8.45c0 4.44-5.36 8-6.53 8.74a.43.43 0 0 1-.44 0c-1.17-.72-6.53-4.3-6.53-8.74V3.11a.42.42 0 0 1 .41-.42C6.83 2.58 5.87.75 9 .75s2.17 1.83 6.34 1.94a.42.42 0 0 1 .41.42Z" fill="#6bb9f2"/><path d="M9 9V.75c3.13 0 2.17 1.83 6.34 1.94a.43.43 0 0 1 .41.43v5.34a4.89 4.89 0 0 1 0 .54Zm0 0H2.28c.4 4.18 5.38 7.5 6.5 8.19a.39.39 0 0 0 .18.06H9Z" fill="url(#ygc18_7)"/><path d="M2.66 2.69C6.83 2.58 5.87.75 9 .75V9H2.28a4.89 4.89 0 0 1 0-.54V3.12a.43.43 0 0 1 .38-.43ZM15.72 9H9v8.25a.39.39 0 0 0 .18-.06c1.16-.69 6.14-4.01 6.54-8.19Z" fill="#50e6ff"/></g></svg>
        </g></g><g transform="translate(310 170)"><g transform="scale(2.78)">
            <svg svgBox="0 0 18 18" fill="msportalfx-svg-placeholder" role="presentation" focusable="false"><g><title/><defs><linearGradient id="ygc18_8" x1="10.56" y1="7.77" x2="10.56" y2="19.24" gradientUnits="userSpaceOnUse"><stop offset=".22" stop-color="#32d4f5"/><stop offset=".47" stop-color="#31d1f3"/><stop offset=".63" stop-color="#2ec9eb"/><stop offset=".77" stop-color="#29bade"/><stop offset=".89" stop-color="#22a5cb"/><stop offset="1" stop-color="#198ab3"/><stop offset="1" stop-color="#198ab3"/></linearGradient><linearGradient id="ygc18_9" x1="10.23" y1="1.63" x2="11.07" y2="12.04"><stop offset=".22" stop-color="#32d4f5"/><stop offset=".47" stop-color="#31d1f3"/><stop offset=".63" stop-color="#2ec9eb"/><stop offset=".77" stop-color="#29bade"/><stop offset=".89" stop-color="#22a5cb"/><stop offset="1" stop-color="#198ab3"/><stop offset="1" stop-color="#198ab3"/></linearGradient></defs><title>Icon-networking-82</title><path d="M16.23 17.17A1.21 1.21 0 0 0 17.46 16v-.2c-.49-3.86-2.69-7-6.89-7s-6.48 2.66-6.91 7a1.24 1.24 0 0 0 1.1 1.36h11.47Z" fill="url(#ygc18_8)"/><path d="M10.57 9.71a3.86 3.86 0 0 1-2.1-.61l2.08 5.42 2.06-5.39a3.83 3.83 0 0 1-2.04.58Z" opacity=".8" fill="#fff"/><circle cx="10.57" cy="5.84" r="3.87" fill="url(#ygc18_9)"/><path d="M6 5.88V1a.16.16 0 0 0-.16-.17H4.57a.17.17 0 0 0-.18.17v4.71a.18.18 0 0 1-.17.17H3.1a.12.12 0 0 1-.1-.12V4.45a.11.11 0 0 0-.19-.08L.59 6.57a.16.16 0 0 0 0 .24L2.79 9A.11.11 0 0 0 3 8.93V7.61a.11.11 0 0 1 .1-.11h2.74A.17.17 0 0 0 6 7.33V5.88Z" fill="#0078d4"/></g></svg>
        </g></g><g transform="translate(310 250)"><g transform="scale(2.78)">
            <svg svgBox="0 0 18 18" fill="msportalfx-svg-placeholder" role="presentation" focusable="false"><g><title/><defs><linearGradient id="ygc18_10" x1="10.56" y1="7.77" x2="10.56" y2="19.24" gradientUnits="userSpaceOnUse"><stop offset=".22" stop-color="#32d4f5"/><stop offset=".47" stop-color="#31d1f3"/><stop offset=".63" stop-color="#2ec9eb"/><stop offset=".77" stop-color="#29bade"/><stop offset=".89" stop-color="#22a5cb"/><stop offset="1" stop-color="#198ab3"/><stop offset="1" stop-color="#198ab3"/></linearGradient><linearGradient id="ygc18_11" x1="10.23" y1="1.63" x2="11.07" y2="12.04"><stop offset=".22" stop-color="#32d4f5"/><stop offset=".47" stop-color="#31d1f3"/><stop offset=".63" stop-color="#2ec9eb"/><stop offset=".77" stop-color="#29bade"/><stop offset=".89" stop-color="#22a5cb"/><stop offset="1" stop-color="#198ab3"/><stop offset="1" stop-color="#198ab3"/></linearGradient></defs><title>Icon-networking-82</title><path d="M16.23 17.17A1.21 1.21 0 0 0 17.46 16v-.2c-.49-3.86-2.69-7-6.89-7s-6.48 2.66-6.91 7a1.24 1.24 0 0 0 1.1 1.36h11.47Z" fill="url(#ygc18_10)"/><path d="M10.57 9.71a3.86 3.86 0 0 1-2.1-.61l2.08 5.42 2.06-5.39a3.83 3.83 0 0 1-2.04.58Z" opacity=".8" fill="#fff"/><circle cx="10.57" cy="5.84" r="3.87" fill="url(#ygc18_11)"/><path d="M6 5.88V1a.16.16 0 0 0-.16-.17H4.57a.17.17 0 0 0-.18.17v4.71a.18.18 0 0 1-.17.17H3.1a.12.12 0 0 1-.1-.12V4.45a.11.11 0 0 0-.19-.08L.59 6.57a.16.16 0 0 0 0 .24L2.79 9A.11.11 0 0 0 3 8.93V7.61a.11.11 0 0 1 .1-.11h2.74A.17.17 0 0 0 6 7.33V5.88Z" fill="#0078d4"/></g></svg>
        </g></g><g transform="translate(155.9783341851567 46.474609375)"><text font-family="Arial" font-size="12px" font-style="normal" font-weight="normal" text-anchor="start" fill="rgb(0,0,0)" fill-opacity="1" dy="1em" transform="translate(0 0)">cn3_spoke</text></g><g transform="translate(148.31129406427593 126.474609375)"><text font-family="Arial" font-size="12px" font-style="normal" font-weight="normal" text-anchor="start" fill="rgb(0,0,0)" fill-opacity="1" dy="1em" transform="translate(0 0)">subnetEgress</text></g><g transform="translate(-19.70053729345237 216.474609375)"><text font-family="Arial" font-size="12px" font-style="normal" font-weight="normal" text-anchor="start" fill="rgb(0,0,0)" fill-opacity="1" dy="1em" transform="translate(0 0)">ubuntu-cn3-spoke-in</text></g><g transform="translate(-13.032526855880867 296.474609375)"><text font-family="Arial" font-size="12px" font-style="normal" font-weight="normal" text-anchor="start" fill="rgb(0,0,0)" fill-opacity="1" dy="1em" transform="translate(0 0)">ubuntu-cn3-spoke</text></g><g transform="translate(134.63249760864264 216.474609375)"><text font-family="Arial" font-size="12px" font-style="normal" font-weight="normal" text-anchor="start" fill="rgb(0,0,0)" fill-opacity="1" dy="1em" transform="translate(0 0)">cn3_spoke_egress</text></g><g transform="translate(284.63249760864267 216.474609375)"><text font-family="Arial" font-size="12px" font-style="normal" font-weight="normal" text-anchor="start" fill="rgb(0,0,0)" fill-opacity="1" dy="1em" transform="translate(0 0)">cn3_spoke_egress</text></g><g transform="translate(315.9891389589624 296.474609375)"><text font-family="Arial" font-size="12px" font-style="normal" font-weight="normal" text-anchor="start" fill="rgb(0,0,0)" fill-opacity="1" dy="1em" transform="translate(0 0)">Default</text></g></g></svg>